<svg width="137" height="105" viewBox="0 0 137 105" fill="none" xmlns="http://www.w3.org/2000/svg">
<path d="M73 0H86V99.8077H73V0Z" fill="#E5FF55"/>
<path d="M86 23.0769L86 -5.96046e-07L136.5 12.1154L115 35.7692L86 23.0769Z" fill="#E5FF55"/>
<path d="M135 105L114.5 79.6154L114.5 35.7692L126 23.6538L135 105Z" fill="#E5FF55"/>
<path d="M86 99.8077L86 92.3077L115.5 79.6154L135 105L86 99.8077Z" fill="#E5FF55"/>
<path d="M15 0H67V19L17 13L15 0Z" fill="#F8F8F8"/>
<path d="M52.5 7L58 100L39 100L43.5 7L52.5 7Z" fill="#F8F8F8"/>
<path d="M58 100L9 100L9 88.5L57 81L58 100Z" fill="#F8F8F8"/>
<path d="M19 74L15 100L4.17371e-07 100L5 65L19 74Z" fill="#F8F8F8"/>
</svg>
